<?xml version="1.0" encoding="UTF-8" standalone="no"?>
<!-- Created with Inkscape (http://www.inkscape.org/) -->

<svg
   xmlns:dc="http://purl.org/dc/elements/1.1/"
   xmlns:cc="http://creativecommons.org/ns#"
   xmlns:rdf="http://www.w3.org/1999/02/22-rdf-syntax-ns#"
   xmlns:svg="http://www.w3.org/2000/svg"
   xmlns="http://www.w3.org/2000/svg"
   xmlns:sodipodi="http://sodipodi.sourceforge.net/DTD/sodipodi-0.dtd"
   xmlns:inkscape="http://www.inkscape.org/namespaces/inkscape"
   width="80"
   height="30"
   id="svg2"
   version="1.1"
   inkscape:version="0.48.4 r9939"
   inkscape:export-filename="C:\Users\mothzilla\Documents\GitHub\1812\assets\cannonPlaceHolder.png"
   inkscape:export-xdpi="89.999763"
   inkscape:export-ydpi="89.999763"
   sodipodi:docname="New document 1">
  <defs
     id="defs4" />
  <sodipodi:namedview
     id="base"
     pagecolor="#ffffff"
     bordercolor="#666666"
     borderopacity="1.0"
     inkscape:pageopacity="0.0"
     inkscape:pageshadow="2"
     inkscape:zoom="12.475"
     inkscape:cx="40"
     inkscape:cy="15"
     inkscape:document-units="px"
     inkscape:current-layer="layer1"
     showgrid="false"
     inkscape:window-width="1440"
     inkscape:window-height="838"
     inkscape:window-x="-8"
     inkscape:window-y="-8"
     inkscape:window-maximized="1" />
  <metadata
     id="metadata7">
    <rdf:RDF>
      <cc:Work
         rdf:about="">
        <dc:format>image/svg+xml</dc:format>
        <dc:type
           rdf:resource="http://purl.org/dc/dcmitype/StillImage" />
        <dc:title></dc:title>
      </cc:Work>
    </rdf:RDF>
  </metadata>
  <g
     inkscape:label="Layer 1"
     inkscape:groupmode="layer"
     id="layer1"
     transform="translate(0,-1022.3622)">
    <path
       style="fill:#3e3e3e;fill-opacity:1;stroke:none"
       d="m 18.035228,1023.5245 c -18.7284401,0.1347 -17.62178439,13.3463 -17.62178439,13.3463 0,0 -1.30032858,16.0878 21.67609839,14.1722 23.052334,-1.9221 5.396765,-1.2305 24.591738,-2.0775 19.194971,-0.8471 27.48293,-0.7834 27.48293,-0.7834 l 0,2.7928 3.68876,0 0,-13.6231 0,-13.6229 -3.68876,0 0,2.7926 c 0,0 -8.287959,0.064 -27.48293,-0.7832 -19.194973,-0.8471 -1.539404,-0.1556 -24.591738,-2.0776 -1.436027,-0.1197 -2.805752,-0.1451 -4.054314,-0.1362 z"
       id="path3755"
       inkscape:connector-curvature="0"
       sodipodi:nodetypes="scsscccccccsss" />
  </g>
</svg>
